<?xml version="1.0" encoding="UTF-8"?>
<svg id="Camada_2" data-name="Camada 2" xmlns="http://www.w3.org/2000/svg" viewBox="0 0 268 268">
  <defs>
    <style>
      .cls-1 {
        stroke: #262626;
        stroke-miterlimit: 10;
        stroke-width: .5px;
      }

      .cls-1, .cls-2 {
        fill: #1a1a1a;
      }

      .cls-3 {
        fill: #000;
      }

      .cls-3, .cls-2, .cls-4, .cls-5 {
        stroke-width: 0px;
      }

      .cls-4 {
        fill: #fff;
      }

      .cls-5 {
        fill: #ff6700;
      }
    </style>
  </defs>
  <g id="Camada_1-2" data-name="Camada 1">
    <g>
      <g>
        <g>
          <path class="cls-2" d="M134,0C59.99,0,0,59.99,0,134s59.99,134,134,134,134-59.99,134-134S208.01,0,134,0ZM134,167.5c-18.5,0-33.5-15-33.5-33.5s15-33.5,33.5-33.5,33.5,15,33.5,33.5-15,33.5-33.5,33.5Z"/>
          <path class="cls-3" d="M134,6.5C63.58,6.5,6.5,63.58,6.5,134s57.08,127.5,127.5,127.5,127.5-57.08,127.5-127.5S204.42,6.5,134,6.5ZM134,167.5c-18.5,0-33.5-15-33.5-33.5s15-33.5,33.5-33.5,33.5,15,33.5,33.5-15,33.5-33.5,33.5Z"/>
        </g>
        <path class="cls-1" d="M134,53c-44.74,0-81,36.26-81,81s36.26,81,81,81,81-36.26,81-81-36.26-81-81-81ZM134,167.5c-18.5,0-33.5-15-33.5-33.5s15-33.5,33.5-33.5,33.5,15,33.5,33.5-15,33.5-33.5,33.5Z"/>
      </g>
      <path class="cls-5" d="M134,68.5c-36.17,0-65.5,29.33-65.5,65.5s29.33,65.5,65.5,65.5,65.5-29.33,65.5-65.5-29.33-65.5-65.5-65.5ZM134,167.5c-18.5,0-33.5-15-33.5-33.5s15-33.5,33.5-33.5,33.5,15,33.5,33.5-15,33.5-33.5,33.5Z"/>
      <g>
        <path class="cls-4" d="M31.3,129.47c4.12-.39,7.5-.51,10.14-.38,1.55.08,2.37.6,2.46,1.57.1,1.07-.44,1.66-1.62,1.77-.05,0-.65,0-1.8-.03-1.35-.02-2.71-.02-4.09.01-2.04.06-4.18.2-6.4.41-3.78.35-7.85,1.06-12.23,2.12,2.8,2.35,7.01,4.25,12.62,5.71,1.17.29,2.34.58,3.5.87.87.31,1.34.8,1.4,1.49.06.65-.22,1.17-.84,1.55-.22.14-1.15.54-2.79,1.2-4.29,1.73-8.23,4.6-11.82,8.6,3.96.83,9.27.93,15.94.3.96-.09,2.15-.24,3.55-.45,1.4-.21,2.34-.34,2.79-.38,1.63-.15,2.49.31,2.59,1.39.08.85-.38,1.43-1.39,1.77-.73.23-2.44.47-5.11.72-7.23.68-13.25.71-18.05.1-1.64-.21-2.8-.48-3.47-.79-.72-.34-1.11-.84-1.18-1.49-.07-.7.34-1.54,1.22-2.53,1.82-2.06,3.42-3.67,4.77-4.83,2.16-1.84,4.6-3.43,7.32-4.76-4.88-1.54-8.85-3.28-11.93-5.22-2.72-1.6-4.13-2.95-4.23-4.04-.04-.46.13-.82.51-1.1.31-.23.93-.5,1.87-.8,3.36-1.13,8.78-2.05,16.25-2.75Z"/>
        <path class="cls-4" d="M15.15,105.44c.6.13,1.47,1.06,2.62,2.79,1.03,1.53,1.48,2.58,1.36,3.15-.05.22-.17.4-.37.55s-.4.2-.58.16c-.23-.05-.62-.5-1.16-1.36-.05-.07-.75-1.02-2.08-2.88-.55-.77-.79-1.35-.71-1.71.12-.57.43-.8.92-.7ZM34.24,106.46c2.88.61,5.8,1.66,8.77,3.16,1.49.75,2.14,1.54,1.97,2.37-.18.85-.75,1.18-1.72.97-.22-.05-.38-.09-.48-.13.35,1.19.41,2.36.17,3.51-.43,2.03-1.33,3.49-2.72,4.39-1.38.9-3.11,1.13-5.17.7-2.09-.44-3.62-1.41-4.59-2.89-.96-1.49-1.23-3.25-.8-5.29.37-1.78,1.28-3.15,2.73-4.12-4.19-.67-6.59.43-7.2,3.31-.13.64-.09,1.37.14,2.18.23.81.32,1.33.27,1.55-.08.36-.29.65-.64.87-.35.22-.72.29-1.1.21-.63-.13-1.12-.71-1.46-1.74-.37-1.1-.42-2.33-.13-3.68,1.06-5.04,5.05-6.82,11.96-5.37ZM37.27,110.44c-2.67-.56-4.27.41-4.8,2.92-.58,2.75.46,4.41,3.1,4.97,2.67.56,4.29-.52,4.87-3.26.25-1.19.1-2.19-.46-3.01-.56-.82-1.46-1.36-2.71-1.62Z"/>
        <path class="cls-4" d="M41.18,81.05c.33.16.79.5,1.38,1.04.78.71,1.34,1.2,1.67,1.45,2,1.5,4.5,2.96,7.5,4.38,1.36.64,2.54,1.05,3.55,1.23,1.01.17,1.43.22,1.27.14.35.17.59.46.73.9s.12.84-.06,1.22c-.67,1.41-2.95,1.19-6.84-.65-.98-.46-1.86-.92-2.64-1.35,1.04,1.92,1.05,3.96.04,6.11-1.06,2.24-2.51,3.7-4.36,4.36-1.84.66-3.91.45-6.21-.63-3.13-1.48-5.27-3.51-6.42-6.1-1.26-2.83-1.22-5.68.14-8.54.76-1.6,1.71-2.85,2.86-3.75,1.08-.83,1.97-1.08,2.66-.76.33.16.56.4.68.74.12.34.11.67-.04.99-.06.14-.54.6-1.44,1.39-.9.79-1.56,1.64-1.98,2.53-.9,1.9-.93,3.82-.09,5.73.87,1.99,2.48,3.54,4.83,4.65,3.18,1.5,5.48.75,6.9-2.26.99-2.09.63-4.11-1.08-6.05-.85-.97-1.82-1.88-2.92-2.73-1.15-.89-1.75-1.35-1.79-1.4-.67-.71-.85-1.38-.55-2.01.43-.91,1.17-1.12,2.21-.63Z"/>
        <path class="cls-4" d="M65.81,67.46c.4.33.64.72.71,1.19.08.47-.03.87-.31,1.22-.54.66-2,.38-4.39-.82.77,2.98.34,5.47-1.3,7.47-2.71,3.32-6.72,2.81-12.02-1.51-2.72-2.22-4.94-4.33-6.66-6.34-1.07-1.24-1.26-2.27-.58-3.11.25-.3.57-.47.98-.51s.76.06,1.06.3c.27.22,1.2,1.18,2.8,2.89s3.17,3.2,4.72,4.46c3.56,2.91,6.14,3.38,7.75,1.42,1.04-1.27,1.37-2.69.99-4.23-.38-1.55-1.46-3.06-3.26-4.53l-.74-.6c-2.79-2.28-4.52-3.81-5.19-4.59-.97-1.12-1.15-2.05-.56-2.78.57-.7,1.34-.65,2.32.14.17.14.78.7,1.81,1.66,1.03.96,2,1.81,2.9,2.54,2.12,1.73,4.21,3.17,6.26,4.32s2.95,1.62,2.7,1.42Z"/>
        <path class="cls-4" d="M59.88,42.55c.98,1.17.9,2.23-.25,3.19-.46.39-.98.55-1.57.5-.59-.05-1.07-.31-1.45-.76-.41-.49-.59-1.06-.54-1.69.06-.64.34-1.16.84-1.58.47-.39.98-.56,1.52-.5.54.06,1.03.35,1.45.85ZM63.29,47.7c4.16,4.96,7.06,8.78,8.69,11.45.66,1.07,1.04,1.85,1.15,2.32.14.62-.03,1.14-.53,1.55-.33.28-.7.4-1.11.38s-.75-.19-1-.5c.04.04-.14-.3-.52-1.02-.42-.82-.95-1.72-1.59-2.68-.92-1.36-2.02-2.82-3.32-4.37-.57-.67-1.17-1.38-1.82-2.12-.64-.74-.99-1.14-1.05-1.2-.93-1.11-1.49-1.96-1.66-2.56-.2-.64-.03-1.19.51-1.65.76-.63,1.51-.51,2.25.38Z"/>
        <path class="cls-4" d="M88.73,39.88c1.27,2.22,2.17,4.63,2.7,7.24.33,1.62.17,2.61-.49,2.99-.35.2-.72.27-1.09.19-.38-.08-.65-.27-.83-.57-.05-.08-.31-1.06-.79-2.94-.48-1.87-1.18-3.61-2.09-5.2-2.08-3.62-4.25-4.79-6.52-3.49-1.3.74-2.08,1.83-2.35,3.26-.28,1.47.04,3.02.97,4.64.52.9,1.37,2.09,2.55,3.56,1.18,1.47,1.97,2.55,2.37,3.24.92,1.6.92,2.67,0,3.19-.47.27-.85.35-1.14.25-.23-.08-.53-.34-.91-.78-.34-.57-1.41-2.17-3.22-4.8-2.6-3.64-4.36-6.27-5.29-7.89-1.62-2.82-1.88-4.55-.79-5.17.35-.2.72-.27,1.1-.19.38.07.65.26.81.54.12.21.28.62.5,1.26.21.63.43,1.15.66,1.54l.18.32c.3-2.66,1.45-4.56,3.42-5.7,1.82-1.04,3.62-1.18,5.4-.41,1.78.77,3.4,2.41,4.84,4.92Z"/>
        <path class="cls-4" d="M110.19,33.67c.86,2.81,1.35,5.88,1.47,9.21.06,1.67-.31,2.62-1.12,2.87-.83.26-1.39-.09-1.68-1.04-.07-.21-.1-.38-.12-.49-.88.88-1.87,1.5-2.99,1.84-1.98.61-3.7.52-5.16-.26-1.46-.78-2.49-2.17-3.11-4.19-.63-2.04-.52-3.85.31-5.41.83-1.56,2.25-2.65,4.24-3.26,1.74-.53,3.38-.4,4.92.4-1.44-4-3.56-5.56-6.38-4.7-.63.19-1.24.58-1.84,1.18-.6.59-1.01.92-1.22.99-.35.11-.71.06-1.07-.14-.37-.2-.6-.49-.72-.86-.19-.62.08-1.32.82-2.12.78-.86,1.84-1.49,3.16-1.9,4.92-1.51,8.41,1.12,10.48,7.88ZM108.17,38.25c-.8-2.61-2.43-3.54-4.88-2.79-2.69.82-3.64,2.53-2.85,5.12.8,2.61,2.53,3.5,5.21,2.69,1.16-.36,1.96-.98,2.41-1.86s.49-1.94.11-3.16Z"/>
        <path class="cls-4" d="M152.5,17.67c0-.06-.13.73-.4,2.39-.31,1.93-.6,3.98-.88,6.15-.39,3.14-.74,6.48-1.04,10.04-.06.73-.12,1.47-.18,2.24-.06.77-.08,1.17-.09,1.21-.14,1.59-.71,2.35-1.72,2.26-1.11-.09-1.58-1.04-1.43-2.84.04-.42.07-.74.12-.98-2.19,1.82-4.62,2.61-7.28,2.38-2.22-.19-3.92-1.06-5.1-2.61-1.18-1.55-1.65-3.58-1.44-6.1.29-3.42,1.47-6.11,3.54-8.06,2.07-1.95,4.63-2.79,7.69-2.53,1.42.12,2.86.58,4.33,1.36.33-2.96.58-4.73.76-5.3.33-1.07.97-1.57,1.92-1.48.9.08,1.31.7,1.21,1.87ZM148.19,25.71c-1.33-1-2.69-1.56-4.1-1.68-2.18-.19-3.97.42-5.36,1.81-1.39,1.4-2.2,3.38-2.42,5.96-.15,1.77.16,3.18.92,4.23.76,1.05,1.9,1.64,3.39,1.77,1.88.16,3.37-.34,4.46-1.51.31-.39.62-.79.93-1.2.35-.42.76-.66,1.22-.7.26-3.01.58-5.9.96-8.68Z"/>
        <path class="cls-4" d="M176.95,37.95c-1.03,2.98-2.73,5.06-5.09,6.22s-5,1.24-7.91.23c-2.42-.84-4.02-2.32-4.82-4.44s-.69-4.65.33-7.59c1.07-3.09,2.73-5.19,4.97-6.33,2.2-1.11,4.75-1.17,7.63-.17,2.42.84,4.08,2.36,4.98,4.58.91,2.21.88,4.71-.09,7.49ZM173.91,36.93c.71-2.04.77-3.81.17-5.3-.59-1.5-1.74-2.54-3.46-3.13-3.83-1.33-6.54.31-8.13,4.91-.74,2.12-.88,3.9-.45,5.33.44,1.43,1.43,2.41,2.98,2.95,2.01.7,3.8.63,5.37-.2,1.57-.83,2.74-2.35,3.5-4.55Z"/>
        <path class="cls-4" d="M209.43,56.08c-.24.29-.54.46-.89.51-.35.05-.65-.03-.9-.24-.12-.1-.46-.66-1.01-1.67-.55-1.01-1.22-1.84-2-2.49-.25-.21-.52-.41-.82-.6-1.43,1.09-2.61,2.19-3.55,3.31-1.21,1.44-1.89,2.75-2.05,3.93-.16,1.18.19,2.13,1.05,2.86.26.22.68.43,1.26.62.57.19.96.37,1.14.53.66.55.67,1.21.02,1.99-.42.5-1.03.68-1.84.54-.81-.14-1.68-.61-2.62-1.39-3.49-2.92-3.29-6.71.61-11.37.82-.98,1.84-1.96,3.07-2.94-.26-.16-.84-.48-1.73-.97-.58-.32-1-.58-1.24-.78-.88-.74-1.04-1.44-.47-2.12.77-.92,2.79-.25,6.07,2.01,2.29-1.46,3.88-1.81,4.79-1.05.28.23.43.54.46.9.03.37-.08.7-.32.98-.18.21-.47.43-.86.65-.4.22-.79.45-1.19.67,3.1,2.78,4.11,4.81,3.02,6.1Z"/>
        <path class="cls-4" d="M223.83,75.29c-.88.69-1.77.89-2.67.61-.4-.13-1.31-.8-2.73-2.02-1.89-1.62-3.37-3.1-4.42-4.46-.48-.62-1.02-1.4-1.61-2.34-3.2,2.48-3.85,4.94-1.96,7.38.52.67,1.18,1.13,1.99,1.37.4.13,1.23.26,2.5.41.46.05.8.22,1.02.5.28.36.38.77.31,1.23-.07.47-.29.85-.68,1.15-.32.25-.71.36-1.18.32-2.73-.22-4.85-1.31-6.38-3.27-3.15-4.06-2.38-7.91,2.31-11.55,2.42-1.88,5.01-2.85,7.76-2.93,3.13-.08,5.54.96,7.22,3.12,1.31,1.69,1.83,3.52,1.55,5.49-.28,1.97-1.29,3.63-3.03,4.98ZM221.71,72.87c1.14-.97,1.83-2,2.08-3.1.25-1.1.04-2.07-.62-2.92-.86-1.1-2-1.77-3.45-2-1.47-.25-3.1-.01-4.89.7.4.66.86,1.32,1.39,2,1.28,1.65,3.1,3.42,5.48,5.32Z"/>
        <path class="cls-4" d="M234.87,104.41c-7.59,3.17-11.77,3.85-12.52,2.05-.29-.69,0-1.22.87-1.59,0,0,1.21-.31,3.61-.91,2.39-.61,4.71-1.38,6.95-2.31,3.74-1.56,5.24-3.22,4.5-4.99-.65-1.55-2.01-2.17-4.1-1.87-1.6.24-4.52,1.24-8.77,3.01-.65.27-1.35.62-2.1,1.05-.75.43-1.19.67-1.33.73-.98.41-1.67.15-2.06-.78-.47-1.12,1.09-2.43,4.67-3.92,1.51-.63,3.1-1.23,4.79-1.8,1.69-.57,2.59-.88,2.71-.93,1.47-.61,1.88-1.69,1.23-3.24-.61-1.45-1.69-2.23-3.26-2.34-1.52-.11-3.65.41-6.38,1.54-1.75.73-3.37,1.46-4.84,2.2s-2.09,1.05-1.85.95c-.38.16-.75.15-1.11-.02-.36-.17-.63-.47-.81-.89-.37-.88.25-1.78,1.84-2.69.46-.27,1.7-.83,3.73-1.68,4.25-1.78,8.46-3.12,12.61-4.05,1.36-.3,2.3-.43,2.81-.37.62.06,1.05.38,1.3.98.39.93.09,1.6-.9,2.02l-3.64.74c1.56.35,2.66,1.32,3.33,2.91.53,1.27.42,2.48-.33,3.65,2.6.39,4.38,1.73,5.33,4.02,1.4,3.35-.71,6.2-6.32,8.54Z"/>
        <path class="cls-4" d="M238.1,130.23c-2.73.34-5.01-.2-6.84-1.62-1.83-1.42-2.92-3.5-3.26-6.22-.19-1.52-.04-3.05.45-4.59-2.52.07-4.08.07-4.68-.01-.97-.15-1.5-.58-1.59-1.29-.06-.45.03-.85.27-1.19.24-.34.56-.54.96-.59-.06,0,.62,0,2.06,0,1.69,0,3.51-.06,5.45-.18,2.79-.18,5.8-.47,9.02-.87.64-.08,1.37-.18,2.19-.31.82-.12,1.32-.2,1.49-.22,1.42-.18,2.19.23,2.31,1.22.13,1.03-.29,1.63-1.27,1.78l-.97.16c1.4,1.12,2.22,2.7,2.48,4.74.3,2.42-.26,4.46-1.7,6.12-1.46,1.7-3.59,2.73-6.39,3.08ZM237.7,127.05c1.95-.25,3.41-.89,4.37-1.93.96-1.04,1.34-2.37,1.14-3.98-.32-2.52-1.31-3.96-2.97-4.35l-1.58.2c-2.47.31-4.91.55-7.31.73-.49,1.46-.64,2.9-.46,4.31.23,1.84.94,3.2,2.12,4.08s2.75,1.19,4.7.94Z"/>
        <path class="cls-4" d="M237.32,155.98c-3.14-.37-5.53-1.59-7.17-3.64-1.64-2.06-2.28-4.61-1.92-7.68.3-2.54,1.41-4.42,3.31-5.66,1.9-1.24,4.4-1.67,7.48-1.3,3.24.38,5.66,1.55,7.24,3.5,1.56,1.92,2.16,4.39,1.8,7.42-.3,2.54-1.44,4.49-3.4,5.84-1.97,1.36-4.41,1.86-7.34,1.51ZM237.67,152.79c2.14.25,3.88-.07,5.22-.96,1.33-.9,2.11-2.25,2.32-4.05.48-4.02-1.7-6.32-6.53-6.89-2.23-.27-4-.03-5.3.7-1.3.73-2.05,1.91-2.25,3.55-.25,2.11.2,3.85,1.34,5.21,1.15,1.36,2.88,2.18,5.19,2.45Z"/>
      </g>
    </g>
  </g>
</svg>